<svg width="25" height="24" viewBox="0 0 25 24" fill="none" xmlns="http://www.w3.org/2000/svg">
<path d="M23.5862 11.1429H9.75022C9.2854 9.31661 7.42805 8.2129 5.60168 8.67772C4.3905 8.98599 3.44475 9.93174 3.13648 11.1429H1.30052C0.827115 11.1429 0.443359 11.5267 0.443359 12.0001C0.443359 12.4735 0.827115 12.8572 1.30052 12.8572H3.13653C3.60134 14.6835 5.4587 15.7872 7.28506 15.3224C8.49624 15.0141 9.442 14.0684 9.75027 12.8572H23.5862C24.0596 12.8572 24.4434 12.4734 24.4434 12C24.4434 11.5266 24.0596 11.1429 23.5862 11.1429ZM6.44337 13.7144C5.49661 13.7144 4.7291 12.9468 4.7291 12.0001C4.7291 11.0533 5.49661 10.2858 6.44337 10.2858C7.39013 10.2858 8.15764 11.0533 8.15764 12.0001C8.15764 12.9468 7.39013 13.7144 6.44337 13.7144Z" fill="#7551A8"/>
<path d="M23.5862 2.57114H20.8931C20.4283 0.744823 18.5709 -0.358882 16.7445 0.105934C15.5334 0.414204 14.5876 1.35996 14.2793 2.57114H1.30052C0.827115 2.57114 0.443359 2.95489 0.443359 3.4283C0.443359 3.9017 0.827115 4.28546 1.30052 4.28546H14.2793C14.7442 6.11177 16.6015 7.21548 18.4279 6.75066C19.6391 6.44239 20.5848 5.49664 20.8931 4.28546H23.5862C24.0596 4.28546 24.4434 3.9017 24.4434 3.4283C24.4434 2.95489 24.0596 2.57114 23.5862 2.57114ZM17.5862 5.14257C16.6395 5.14257 15.872 4.37505 15.872 3.4283C15.872 2.48154 16.6395 1.71403 17.5862 1.71403C18.533 1.71403 19.3005 2.48154 19.3005 3.4283C19.3005 4.37505 18.533 5.14257 17.5862 5.14257Z" fill="#7551A8"/>
<path d="M23.5862 19.7143H19.1788C18.7139 17.888 16.8566 16.7843 15.0302 17.2491C13.819 17.5574 12.8733 18.5032 12.565 19.7143H1.30052C0.827115 19.7143 0.443359 20.0981 0.443359 20.5715C0.443359 21.0448 0.827115 21.4286 1.30052 21.4286H12.5651C13.0299 23.2549 14.8872 24.3586 16.7136 23.8938C17.9248 23.5856 18.8705 22.6398 19.1788 21.4286H23.5862C24.0596 21.4286 24.4434 21.0449 24.4434 20.5715C24.4434 20.098 24.0596 19.7143 23.5862 19.7143ZM15.8719 22.2858C14.9252 22.2858 14.1577 21.5183 14.1577 20.5715C14.1577 19.6247 14.9252 18.8572 15.8719 18.8572C16.8187 18.8572 17.5862 19.6247 17.5862 20.5715C17.5862 21.5183 16.8187 22.2858 15.8719 22.2858Z" fill="#7551A8"/>
</svg>
