<svg width="25" height="24" viewBox="0 0 25 24" fill="none" xmlns="http://www.w3.org/2000/svg">
<path d="M24.2056 22.374L17.9006 16.0688C19.4929 14.1114 20.2734 11.6176 20.0813 9.10167C19.8891 6.58572 18.739 4.2394 16.868 2.54647C14.997 0.853538 12.5478 -0.0569393 10.0253 0.00276074C7.50282 0.0624608 5.09941 1.08779 3.31059 2.86734C1.5311 4.65622 0.505818 7.05973 0.44612 9.5823C0.386422 12.1049 1.29686 14.5542 2.98973 16.4253C4.6826 18.2963 7.02884 19.4465 9.54469 19.6386C12.0605 19.8308 14.5542 19.0502 16.5116 17.4579L22.8165 23.7631C23.005 23.9245 23.2474 24.0088 23.4953 23.9993C23.7433 23.9897 23.9785 23.8869 24.1539 23.7114C24.3294 23.536 24.4321 23.3008 24.4417 23.0528C24.4513 22.8049 24.367 22.5625 24.2056 22.374ZM4.69965 15.4087C3.59693 14.3067 2.8458 12.9024 2.54129 11.3734C2.23677 9.84437 2.39254 8.2594 2.9889 6.81895C3.58526 5.3785 4.59541 4.14727 5.89157 3.28101C7.18774 2.41476 8.71169 1.95239 10.2707 1.95239C11.8296 1.95239 13.3536 2.41476 14.6497 3.28101C15.9459 4.14727 16.9561 5.3785 17.5524 6.81895C18.1488 8.2594 18.3045 9.84437 18 11.3734C17.6955 12.9024 16.9444 14.3067 15.8417 15.4087C15.1132 16.146 14.2457 16.7313 13.2894 17.1308C12.3331 17.5302 11.307 17.7359 10.2707 17.7359C9.23428 17.7359 8.2082 17.5302 7.2519 17.1308C6.2956 16.7313 5.42809 16.146 4.69965 15.4087Z" fill="#D2D2E9"/>
</svg>
