<svg width="52" height="47" viewBox="0 0 52 47" fill="none" xmlns="http://www.w3.org/2000/svg">
<path d="M47.8008 4.29399C45.0779 1.55418 41.473 0.0567147 37.6257 0.0567147C33.7783 0.0567147 30.1625 1.56528 27.4396 4.30509L26.0175 5.736L24.5734 4.2829C21.8505 1.54309 18.2236 0.0234375 14.3762 0.0234375C10.5399 0.0234375 6.92406 1.532 4.21218 4.26072C1.48927 7.00053 -0.009987 10.6388 0.00103693 14.5101C0.00103693 18.3813 1.51131 22.0085 4.23422 24.7483L24.9372 45.5797C25.2238 45.8681 25.6096 46.0234 25.9844 46.0234C26.3592 46.0234 26.7451 45.8792 27.0317 45.5908L47.7787 24.7927C50.5016 22.0529 52.0009 18.4146 52.0009 14.5433C52.0119 10.6721 50.5237 7.03381 47.8008 4.29399ZM45.6842 22.674L25.9844 42.4184L6.32877 22.6408C4.16808 20.4667 2.9775 17.5826 2.9775 14.5101C2.9775 11.4375 4.15706 8.55346 6.31775 6.39045C8.46741 4.22744 11.3336 3.02947 14.3762 3.02947C17.4299 3.02947 20.3071 4.22744 22.4678 6.40154L24.9592 8.90841C25.5435 9.49631 26.4805 9.49631 27.0648 8.90841L29.5341 6.42373C31.6948 4.24963 34.5721 3.05165 37.6147 3.05165C40.6573 3.05165 43.5235 4.24963 45.6842 6.41263C47.8449 8.58674 49.0244 11.4707 49.0244 14.5433C49.0355 17.6159 47.8449 20.4999 45.6842 22.674Z" fill="#B7B7D3"/>
</svg>
