<svg width="52" height="47" viewBox="0 0 52 47" fill="none" xmlns="http://www.w3.org/2000/svg">
<path d="M47.7998 4.91316C45.0769 2.19025 41.4721 0.702017 37.6247 0.702017C33.7774 0.702017 30.1615 2.20127 27.4386 4.92418L26.0165 6.34627L24.5724 4.90214C21.8495 2.17922 18.2226 0.668945 14.3753 0.668945C10.5389 0.668945 6.92309 2.1682 4.2112 4.88009C1.48829 7.603 -0.0109636 11.2188 6.03639e-05 15.0662C6.03639e-05 18.9136 1.51034 22.5184 4.23325 25.2413L24.9362 45.9442C25.2228 46.2309 25.6086 46.3852 25.9835 46.3852C26.3583 46.3852 26.7441 46.2419 27.0307 45.9553L47.7778 25.2854C50.5007 22.5625 51.9999 18.9466 51.9999 15.0993C52.0109 11.2519 50.5227 7.63607 47.7998 4.91316Z" fill="#E62E6B"/>
</svg>
